Coordinates
version=1
nRows=4
nColumns=40
inDegrees=yes

Units are S.I. units (second, meters, Newtons, ...)
If the header above contains a line with 'inDegrees', this indicates whether rotational values are in degrees (yes) or radians (no).

endheader
time	pelvis_tilt	pelvis_list	pelvis_rotation	pelvis_tx	pelvis_ty	pelvis_tz	hip_flexion_r	hip_adduction_r	hip_rotation_r	knee_angle_r	knee_angle_r_beta	ankle_angle_r	subtalar_angle_r	mtp_angle_r	hip_flexion_l	hip_adduction_l	hip_rotation_l	knee_angle_l	knee_angle_l_beta	ankle_angle_l	subtalar_angle_l	mtp_angle_l	lumbar_extension	lumbar_bending	lumbar_rotation	arm_flex_r	arm_add_r	arm_rot_r	elbow_flex_r	pro_sup_r	wrist_flex_r	wrist_dev_r	arm_flex_l	arm_add_l	arm_rot_l	elbow_flex_l	pro_sup_l	wrist_flex_l	wrist_dev_l
      7.11000000000000031974	      1.47256643007714793647	     -2.09145230735931830779	   -172.58523273178752788226	      0.34893357395839835755	      0.67519435857572773774	     -0.61832165682219775160	     63.61229940121474868420	    -13.21675726147990914683	      4.92393436457066435707	     85.37009502928795257048	      1.48998924100151985961	     32.91897958578260841023	      0.00000000000000000000	      0.00000000000000000000	     66.51582700757916200018	     -7.88890361445052867850	      1.82755422504729114763	     85.52005443828201691758	      1.49260652643281099827	     22.20977988477933351419	      0.00000000000000000000	      0.00000000000000000000	    -64.54467225639996286191	      5.00136194962900493266	     -5.90315333940845388128	     58.23567788056521976614	     -1.35139083049521757651	     25.98380858949483496190	      3.68266897164686968225	     11.43576380134896020024	      0.00000000000000000000	      0.00000000000000000000	     66.56811059276353148562	    -11.37504046504195542866	     85.27092645520197322639	      5.15529001558781452275	     84.41569447013567639715	      0.00000000000000000000	      0.00000000000000000000
      7.11500000000000021316	      1.52258363702045085297	     -2.00271680418588138295	   -172.51717130107053321808	      0.34862885731892445662	      0.67546943244868462575	     -0.61832887474820530382	     63.48273217986692884551	    -13.18800576258924905915	      4.78094279183513215514	     85.22228093870999998671	      1.48740939844009334436	     33.07788024964001039052	      0.00000000000000000000	      0.00000000000000000000	     66.53726720420344520335	     -7.85907880791610047311	      1.94986560133831954289	     85.45823764807808231581	      1.49152761991073767867	     22.24357261057964052497	      0.00000000000000000000	      0.00000000000000000000	    -64.53050085982232531023	      5.07425780799805625776	     -5.83303326803334876161	     58.40587518770533392853	     -1.22741564016659543412	     24.87270802218036891418	      3.79863135533078821737	     10.09237185696857430628	      0.00000000000000000000	      0.00000000000000000000	     66.62810337603565358222	    -11.28480414498253203703	     84.83533954527571552262	      5.09987371527480259914	     85.22589513837777985827	      0.00000000000000000000	      0.00000000000000000000
      7.12000000000000010658	      1.55245668220120669467	     -2.00113171133882117303	   -172.38852211448477191880	      0.34819700404841291697	      0.67559878527025407635	     -0.61835693102998734449	     63.46136313992826671893	    -13.28361333302445146387	      4.72127317380411071213	     85.25203781966230565104	      1.48792875398783519536	     33.13121291873061124988	      0.00000000000000000000	      0.00000000000000000000	     66.55152920801741345258	     -7.76455981475194167984	      2.01844646081878797972	     85.44186639890395440489	      1.49124188770998489240	     22.21226300231291261866	      0.00000000000000000000	      0.00000000000000000000	    -64.51576075689877143304	      5.14226878281198374054	     -5.86777623702171080566	     58.38441646234250015368	     -1.22604246749174627951	     24.53349957475128206852	      3.73900108907719674889	     10.91477188452394919693	      0.00000000000000000000	      0.00000000000000000000	     66.63499408417771974200	    -11.29008981748742534990	     84.89633274068675916624	      5.10509250679237247539	     85.41238527197398866520	      0.00000000000000000000	      0.00000000000000000000
      7.12500000000000000000	      1.54179677788906843716	     -1.97091282811354218119	   -172.29996982186082732369	      0.34776348078990620971	      0.67587972097744242195	     -0.61840494373725174437	     63.37079156897162590667	    -13.34477388134987307922	      4.61361769312257319342	     85.23874380040545872816	      1.48769672958097953774	     33.16853545805330583107	      0.00000000000000000000	      0.00000000000000000000	     66.48289379936979059948	     -7.67265307679586072709	      2.11969281147304888790	     85.37617431228325415304	      1.49009534450594816057	     22.21953782052771586564	      0.00000000000000000000	      0.00000000000000000000	    -64.54251956764178999038	      5.20148684815687456506	     -5.88575801216125338300	     58.35580685297653502630	     -1.20141435652655492738	     24.51590575684248207722	      3.70927699346038286521	     11.36053952319401183502	      0.00000000000000000000	      0.00000000000000000000	     66.63357984214627549591	    -11.27293044202317595648	     84.96996386380587296117	      5.04272054803095404196	     85.21109123866371248823	      0.00000000000000000000	      0.00000000000000000000
